# xmcd
#
# Track frame offsets: 
#        150
#        18891
#        46712
#        70153
#
# Disc length: 1186 seconds
#
# Revision: 1
# Processed by: cddbd v1.5.2PL0 Copyright (c) Steve Scherf et al.
# Submitted via: ExactAudioCopy v0.99pb4
#
DISCID=2504a004
DTITLE=Mesh - Kill Your Darlings
DYEAR=2016
DGENRE=Electro-Pop
TTITLE0=Kill Your Darlings (Short)
TTITLE1=Paper Thin
TTITLE2=Kill Your Darlings (Club Edit)
TTITLE3=Kill Your Darlings (Aesthetic Perfection Remix)
EXTD=
EXTT0=
EXTT1=
EXTT2=
EXTT3=
PLAYORDER=
